<svg xmlns="http://www.w3.org/2000/svg" xmlns:xlink="http://www.w3.org/1999/xlink" width="500" zoomAndPan="magnify" viewBox="0 0 375 149.999998" height="200" preserveAspectRatio="xMidYMid meet" version="1.0"><defs><g/><clipPath id="b77153c0f7"><path d="M 84 96 L 95 96 L 95 116.71875 L 84 116.71875 Z M 84 96 " clip-rule="nonzero"/></clipPath><clipPath id="59f5708dc1"><path d="M 4.167969 33.46875 L 21 33.46875 L 21 50 L 4.167969 50 Z M 4.167969 33.46875 " clip-rule="nonzero"/></clipPath><clipPath id="a20feb16e8"><path d="M 65 39 L 95.667969 39 L 95.667969 71 L 65 71 Z M 65 39 " clip-rule="nonzero"/></clipPath></defs><rect x="-37.5" width="450" fill="#ffffff" y="-15" height="179.999997" fill-opacity="1"/><rect x="-37.5" width="450" fill="#ffffff" y="-15" height="179.999997" fill-opacity="1"/><g clip-path="url(#b77153c0f7)"><path fill="#dfeef7" d="M 94.683594 98.132812 C 95.65625 105.296875 92.46875 112.214844 86.820312 116.214844 C 86.121094 116.707031 85.144531 116.476562 84.710938 115.742188 L 84.597656 115.546875 C 84.207031 114.882812 84.402344 114.039062 85.03125 113.589844 C 89.703125 110.269531 92.34375 104.539062 91.546875 98.597656 C 91.445312 97.835938 91.9375 97.121094 92.6875 96.953125 L 92.902344 96.90625 C 93.738281 96.722656 94.566406 97.285156 94.683594 98.132812 " fill-opacity="1" fill-rule="nonzero"/></g><path fill="#dfeef7" d="M 88.476562 99.605469 C 88.851562 103.929688 86.972656 108.058594 83.691406 110.636719 C 82.976562 111.199219 81.941406 111.023438 81.480469 110.246094 L 81.371094 110.0625 C 80.988281 109.410156 81.175781 108.59375 81.765625 108.125 C 84.210938 106.179688 85.605469 103.097656 85.320312 99.863281 C 85.257812 99.136719 85.773438 98.484375 86.484375 98.328125 L 86.683594 98.28125 C 87.558594 98.089844 88.402344 98.710938 88.476562 99.605469 " fill-opacity="1" fill-rule="nonzero"/><g clip-path="url(#59f5708dc1)"><path fill="#dfeef7" d="M 4.382812 47.246094 C 6.28125 40.269531 11.914062 35.144531 18.679688 33.675781 C 19.511719 33.492188 20.320312 34.085938 20.433594 34.933594 L 20.460938 35.15625 C 20.5625 35.921875 20.054688 36.625 19.304688 36.789062 C 13.703125 38.019531 9.039062 42.261719 7.449219 48.042969 C 7.246094 48.785156 6.519531 49.25 5.761719 49.109375 L 5.542969 49.070312 C 4.703125 48.914062 4.15625 48.070312 4.382812 47.246094 " fill-opacity="1" fill-rule="nonzero"/></g><path fill="#dfeef7" d="M 10.667969 48.316406 C 12.015625 44.1875 15.355469 41.125 19.382812 40.03125 C 20.253906 39.796875 21.144531 40.359375 21.261719 41.257812 L 21.289062 41.46875 C 21.390625 42.21875 20.898438 42.898438 20.171875 43.097656 C 17.164062 43.933594 14.679688 46.222656 13.675781 49.3125 C 13.453125 50.007812 12.722656 50.40625 12.007812 50.273438 L 11.804688 50.234375 C 10.925781 50.070312 10.390625 49.167969 10.667969 48.316406 " fill-opacity="1" fill-rule="nonzero"/><path fill="#fec108" d="M 85.914062 65.546875 L 80.441406 99.863281 C 79.761719 104.125 75.757812 107.027344 71.5 106.347656 L 18.453125 97.867188 C 14.195312 97.183594 11.296875 93.175781 11.976562 88.917969 L 17.453125 54.601562 C 17.734375 52.832031 18.585938 51.300781 19.789062 50.164062 C 21.492188 48.546875 23.898438 47.714844 26.390625 48.117188 L 79.4375 56.597656 C 81.933594 56.996094 83.960938 58.535156 85.074219 60.601562 C 85.863281 62.058594 86.199219 63.78125 85.914062 65.546875 " fill-opacity="1" fill-rule="nonzero"/><path fill="#feb60a" d="M 19.789062 50.164062 L 48.609375 87.703125 L 85.074219 60.601562 Z M 19.789062 50.164062 " fill-opacity="1" fill-rule="nonzero"/><path fill="#fdac01" d="M 12.816406 93.859375 L 49.734375 72.300781 L 78.101562 104.300781 C 76.398438 105.914062 73.996094 106.746094 71.5 106.347656 L 18.453125 97.867188 C 15.957031 97.46875 13.933594 95.925781 12.816406 93.859375 " fill-opacity="1" fill-rule="nonzero"/><path fill="#ffd54f" d="M 85.074219 60.601562 L 48.160156 82.164062 L 19.789062 50.164062 C 21.492188 48.546875 23.898438 47.714844 26.390625 48.117188 L 79.4375 56.597656 C 81.933594 56.996094 83.960938 58.535156 85.074219 60.601562 " fill-opacity="1" fill-rule="nonzero"/><g clip-path="url(#a20feb16e8)"><path fill="#f5554a" d="M 95.589844 54.960938 C 95.589844 46.554688 88.78125 39.742188 80.382812 39.742188 C 71.988281 39.742188 65.179688 46.554688 65.179688 54.960938 C 65.179688 63.367188 71.988281 70.183594 80.382812 70.183594 C 88.78125 70.183594 95.589844 63.367188 95.589844 54.960938 " fill-opacity="1" fill-rule="nonzero"/></g><path fill="#ffffff" d="M 79.539062 52.316406 C 79.296875 52.539062 79.035156 52.710938 78.75 52.835938 C 78.464844 52.960938 78.128906 53.023438 77.738281 53.023438 C 77.519531 53.023438 77.316406 52.980469 77.128906 52.894531 C 76.941406 52.8125 76.78125 52.699219 76.648438 52.554688 C 76.519531 52.410156 76.414062 52.25 76.335938 52.066406 C 76.261719 51.882812 76.222656 51.6875 76.222656 51.480469 C 76.222656 51.277344 76.253906 51.097656 76.320312 50.949219 C 76.386719 50.796875 76.476562 50.667969 76.59375 50.558594 C 76.710938 50.449219 76.847656 50.347656 77 50.261719 C 77.15625 50.171875 77.320312 50.082031 77.496094 49.984375 C 77.863281 49.742188 78.191406 49.496094 78.480469 49.25 C 78.769531 49 79.027344 48.765625 79.253906 48.550781 C 79.480469 48.332031 79.679688 48.148438 79.847656 47.996094 C 80.015625 47.839844 80.164062 47.734375 80.289062 47.675781 C 80.359375 47.636719 80.429688 47.605469 80.492188 47.582031 C 80.554688 47.554688 80.617188 47.539062 80.683594 47.527344 C 80.75 47.515625 80.824219 47.507812 80.902344 47.503906 C 80.984375 47.5 81.085938 47.5 81.210938 47.5 C 81.59375 47.5 81.894531 47.574219 82.117188 47.730469 C 82.339844 47.882812 82.507812 48.082031 82.621094 48.328125 C 82.738281 48.574219 82.808594 48.851562 82.835938 49.160156 C 82.867188 49.46875 82.882812 49.78125 82.882812 50.09375 L 82.882812 60.304688 C 82.882812 60.628906 82.867188 60.945312 82.835938 61.257812 C 82.808594 61.570312 82.738281 61.84375 82.621094 62.085938 C 82.507812 62.332031 82.339844 62.527344 82.117188 62.675781 C 81.894531 62.828125 81.59375 62.902344 81.210938 62.902344 C 80.824219 62.902344 80.519531 62.828125 80.300781 62.675781 C 80.078125 62.527344 79.914062 62.332031 79.800781 62.085938 C 79.683594 61.84375 79.613281 61.570312 79.585938 61.257812 C 79.554688 60.945312 79.539062 60.628906 79.539062 60.304688 L 79.539062 52.316406 " fill-opacity="1" fill-rule="nonzero"/><g fill="#4f4d5e" fill-opacity="1"><g transform="translate(99.644762, 79.64705)"><g><path d="M 15.78125 -12.21875 C 15.25 -10.175781 14.675781 -8.140625 14.0625 -6.109375 C 13.457031 -4.085938 12.816406 -2.050781 12.140625 0 L 7.453125 0 C 6.960938 -1.132812 6.429688 -2.484375 5.859375 -4.046875 C 5.296875 -5.609375 4.710938 -7.3125 4.109375 -9.15625 C 3.503906 -11.007812 2.882812 -12.96875 2.25 -15.03125 C 1.613281 -17.101562 1 -19.191406 0.40625 -21.296875 L 6.765625 -21.296875 C 6.972656 -20.328125 7.207031 -19.265625 7.46875 -18.109375 C 7.726562 -16.960938 8 -15.78125 8.28125 -14.5625 C 8.5625 -13.351562 8.859375 -12.132812 9.171875 -10.90625 C 9.484375 -9.675781 9.800781 -8.5 10.125 -7.375 C 10.46875 -8.5625 10.804688 -9.773438 11.140625 -11.015625 C 11.484375 -12.253906 11.8125 -13.472656 12.125 -14.671875 C 12.4375 -15.878906 12.734375 -17.039062 13.015625 -18.15625 C 13.296875 -19.28125 13.546875 -20.328125 13.765625 -21.296875 L 18.140625 -21.296875 C 18.347656 -20.328125 18.585938 -19.28125 18.859375 -18.15625 C 19.128906 -17.039062 19.410156 -15.878906 19.703125 -14.671875 C 20.003906 -13.472656 20.316406 -12.253906 20.640625 -11.015625 C 20.972656 -9.773438 21.3125 -8.5625 21.65625 -7.375 C 21.976562 -8.5 22.300781 -9.675781 22.625 -10.90625 C 22.945312 -12.132812 23.25 -13.351562 23.53125 -14.5625 C 23.820312 -15.78125 24.09375 -16.960938 24.34375 -18.109375 C 24.601562 -19.265625 24.84375 -20.328125 25.0625 -21.296875 L 31.328125 -21.296875 C 30.734375 -19.191406 30.117188 -17.101562 29.484375 -15.03125 C 28.859375 -12.96875 28.238281 -11.007812 27.625 -9.15625 C 27.019531 -7.3125 26.425781 -5.609375 25.84375 -4.046875 C 25.269531 -2.484375 24.738281 -1.132812 24.25 0 L 19.546875 0 C 18.878906 -2.050781 18.21875 -4.085938 17.5625 -6.109375 C 16.914062 -8.140625 16.320312 -10.175781 15.78125 -12.21875 Z M 15.78125 -12.21875 "/></g></g></g><g fill="#4f4d5e" fill-opacity="1"><g transform="translate(131.387087, 79.64705)"><g><path d="M 10.96875 -4.203125 C 11.5625 -4.203125 12.128906 -4.21875 12.671875 -4.25 C 13.210938 -4.28125 13.644531 -4.320312 13.96875 -4.375 L 13.96875 -8.953125 C 13.726562 -9.003906 13.363281 -9.054688 12.875 -9.109375 C 12.382812 -9.160156 11.9375 -9.1875 11.53125 -9.1875 C 10.96875 -9.1875 10.4375 -9.148438 9.9375 -9.078125 C 9.4375 -9.015625 9 -8.890625 8.625 -8.703125 C 8.25 -8.515625 7.953125 -8.257812 7.734375 -7.9375 C 7.515625 -7.613281 7.40625 -7.207031 7.40625 -6.71875 C 7.40625 -5.769531 7.722656 -5.113281 8.359375 -4.75 C 8.992188 -4.382812 9.863281 -4.203125 10.96875 -4.203125 Z M 10.484375 -21.859375 C 12.265625 -21.859375 13.75 -21.65625 14.9375 -21.25 C 16.125 -20.84375 17.070312 -20.257812 17.78125 -19.5 C 18.5 -18.75 19.003906 -17.832031 19.296875 -16.75 C 19.597656 -15.675781 19.75 -14.476562 19.75 -13.15625 L 19.75 -0.609375 C 18.882812 -0.421875 17.679688 -0.195312 16.140625 0.0625 C 14.609375 0.320312 12.75 0.453125 10.5625 0.453125 C 9.1875 0.453125 7.9375 0.328125 6.8125 0.078125 C 5.695312 -0.160156 4.734375 -0.554688 3.921875 -1.109375 C 3.117188 -1.660156 2.5 -2.378906 2.0625 -3.265625 C 1.632812 -4.160156 1.421875 -5.257812 1.421875 -6.5625 C 1.421875 -7.800781 1.671875 -8.851562 2.171875 -9.71875 C 2.671875 -10.582031 3.335938 -11.269531 4.171875 -11.78125 C 5.003906 -12.289062 5.957031 -12.660156 7.03125 -12.890625 C 8.113281 -13.117188 9.238281 -13.234375 10.40625 -13.234375 C 11.1875 -13.234375 11.878906 -13.195312 12.484375 -13.125 C 13.097656 -13.0625 13.59375 -12.976562 13.96875 -12.875 L 13.96875 -13.4375 C 13.96875 -14.46875 13.65625 -15.289062 13.03125 -15.90625 C 12.414062 -16.53125 11.335938 -16.84375 9.796875 -16.84375 C 8.773438 -16.84375 7.765625 -16.765625 6.765625 -16.609375 C 5.765625 -16.460938 4.898438 -16.253906 4.171875 -15.984375 L 3.40625 -20.84375 C 3.75 -20.957031 4.179688 -21.070312 4.703125 -21.1875 C 5.234375 -21.3125 5.8125 -21.421875 6.4375 -21.515625 C 7.0625 -21.609375 7.71875 -21.6875 8.40625 -21.75 C 9.09375 -21.820312 9.785156 -21.859375 10.484375 -21.859375 Z M 10.484375 -21.859375 "/></g></g></g><g fill="#4f4d5e" fill-opacity="1"><g transform="translate(153.776763, 79.64705)"><g><path d="M 11.328125 0.40625 C 9.578125 0.375 8.15625 0.1875 7.0625 -0.15625 C 5.96875 -0.507812 5.101562 -1.003906 4.46875 -1.640625 C 3.832031 -2.273438 3.398438 -3.039062 3.171875 -3.9375 C 2.941406 -4.84375 2.828125 -5.863281 2.828125 -7 L 2.828125 -30.4375 L 8.859375 -31.421875 L 8.859375 -8.21875 C 8.859375 -7.675781 8.898438 -7.1875 8.984375 -6.75 C 9.066406 -6.320312 9.222656 -5.957031 9.453125 -5.65625 C 9.679688 -5.363281 10.007812 -5.125 10.4375 -4.9375 C 10.875 -4.75 11.457031 -4.628906 12.1875 -4.578125 Z M 11.328125 0.40625 "/></g></g></g><g fill="#4f4d5e" fill-opacity="1"><g transform="translate(166.570866, 79.64705)"><g><path d="M 11.328125 0.40625 C 9.578125 0.375 8.15625 0.1875 7.0625 -0.15625 C 5.96875 -0.507812 5.101562 -1.003906 4.46875 -1.640625 C 3.832031 -2.273438 3.398438 -3.039062 3.171875 -3.9375 C 2.941406 -4.84375 2.828125 -5.863281 2.828125 -7 L 2.828125 -30.4375 L 8.859375 -31.421875 L 8.859375 -8.21875 C 8.859375 -7.675781 8.898438 -7.1875 8.984375 -6.75 C 9.066406 -6.320312 9.222656 -5.957031 9.453125 -5.65625 C 9.679688 -5.363281 10.007812 -5.125 10.4375 -4.9375 C 10.875 -4.75 11.457031 -4.628906 12.1875 -4.578125 Z M 11.328125 0.40625 "/></g></g></g><g fill="#4f4d5e" fill-opacity="1"><g transform="translate(179.364969, 79.64705)"><g/></g></g><g fill="#4f4d5e" fill-opacity="1"><g transform="translate(189.082012, 79.64705)"><g><path d="M 14.53125 -11.296875 C 14.53125 -13.234375 14.28125 -14.609375 13.78125 -15.421875 C 13.28125 -16.234375 12.425781 -16.640625 11.21875 -16.640625 C 10.832031 -16.640625 10.4375 -16.617188 10.03125 -16.578125 C 9.632812 -16.535156 9.242188 -16.488281 8.859375 -16.4375 L 8.859375 0 L 2.828125 0 L 2.828125 -20.5625 C 3.347656 -20.695312 3.953125 -20.835938 4.640625 -20.984375 C 5.328125 -21.140625 6.050781 -21.273438 6.8125 -21.390625 C 7.582031 -21.515625 8.375 -21.609375 9.1875 -21.671875 C 10 -21.742188 10.796875 -21.78125 11.578125 -21.78125 C 13.117188 -21.78125 14.367188 -21.582031 15.328125 -21.1875 C 16.285156 -20.800781 17.070312 -20.335938 17.6875 -19.796875 C 18.550781 -20.421875 19.539062 -20.90625 20.65625 -21.25 C 21.78125 -21.601562 22.816406 -21.78125 23.765625 -21.78125 C 25.460938 -21.78125 26.859375 -21.539062 27.953125 -21.0625 C 29.046875 -20.59375 29.914062 -19.925781 30.5625 -19.0625 C 31.207031 -18.195312 31.648438 -17.171875 31.890625 -15.984375 C 32.140625 -14.796875 32.265625 -13.476562 32.265625 -12.03125 L 32.265625 0 L 26.234375 0 L 26.234375 -11.296875 C 26.234375 -13.234375 25.984375 -14.609375 25.484375 -15.421875 C 24.984375 -16.234375 24.128906 -16.640625 22.921875 -16.640625 C 22.585938 -16.640625 22.128906 -16.554688 21.546875 -16.390625 C 20.972656 -16.234375 20.5 -16.03125 20.125 -15.78125 C 20.3125 -15.164062 20.429688 -14.515625 20.484375 -13.828125 C 20.535156 -13.140625 20.5625 -12.40625 20.5625 -11.625 L 20.5625 0 L 14.53125 0 Z M 14.53125 -11.296875 "/></g></g></g><g fill="#4f4d5e" fill-opacity="1"><g transform="translate(223.982372, 79.64705)"><g><path d="M 1.828125 -10.484375 C 1.828125 -12.367188 2.113281 -14.019531 2.6875 -15.4375 C 3.269531 -16.851562 4.03125 -18.035156 4.96875 -18.984375 C 5.914062 -19.929688 7.003906 -20.644531 8.234375 -21.125 C 9.460938 -21.613281 10.726562 -21.859375 12.03125 -21.859375 C 15.050781 -21.859375 17.4375 -20.929688 19.1875 -19.078125 C 20.945312 -17.234375 21.828125 -14.519531 21.828125 -10.9375 C 21.828125 -10.582031 21.8125 -10.195312 21.78125 -9.78125 C 21.75 -9.363281 21.722656 -8.988281 21.703125 -8.65625 L 8.015625 -8.65625 C 8.148438 -7.414062 8.726562 -6.429688 9.75 -5.703125 C 10.78125 -4.972656 12.160156 -4.609375 13.890625 -4.609375 C 14.992188 -4.609375 16.078125 -4.707031 17.140625 -4.90625 C 18.210938 -5.113281 19.082031 -5.367188 19.75 -5.671875 L 20.5625 -0.765625 C 20.238281 -0.609375 19.804688 -0.445312 19.265625 -0.28125 C 18.722656 -0.125 18.125 0.015625 17.46875 0.140625 C 16.8125 0.265625 16.101562 0.363281 15.34375 0.4375 C 14.582031 0.519531 13.828125 0.5625 13.078125 0.5625 C 11.160156 0.5625 9.492188 0.28125 8.078125 -0.28125 C 6.660156 -0.851562 5.484375 -1.628906 4.546875 -2.609375 C 3.617188 -3.597656 2.929688 -4.765625 2.484375 -6.109375 C 2.046875 -7.460938 1.828125 -8.921875 1.828125 -10.484375 Z M 15.984375 -12.796875 C 15.960938 -13.304688 15.875 -13.800781 15.71875 -14.28125 C 15.570312 -14.769531 15.34375 -15.203125 15.03125 -15.578125 C 14.726562 -15.960938 14.335938 -16.273438 13.859375 -16.515625 C 13.390625 -16.753906 12.804688 -16.875 12.109375 -16.875 C 11.429688 -16.875 10.847656 -16.757812 10.359375 -16.53125 C 9.878906 -16.300781 9.472656 -16 9.140625 -15.625 C 8.816406 -15.25 8.566406 -14.8125 8.390625 -14.3125 C 8.222656 -13.8125 8.097656 -13.304688 8.015625 -12.796875 Z M 15.984375 -12.796875 "/></g></g></g><g fill="#4f4d5e" fill-opacity="1"><g transform="translate(247.627166, 79.64705)"><g><path d="M 8.953125 -4.328125 C 10.054688 -4.328125 10.835938 -4.4375 11.296875 -4.65625 C 11.753906 -4.875 11.984375 -5.289062 11.984375 -5.90625 C 11.984375 -6.394531 11.6875 -6.820312 11.09375 -7.1875 C 10.5 -7.550781 9.59375 -7.960938 8.375 -8.421875 C 7.4375 -8.773438 6.582031 -9.140625 5.8125 -9.515625 C 5.039062 -9.890625 4.382812 -10.335938 3.84375 -10.859375 C 3.300781 -11.390625 2.878906 -12.019531 2.578125 -12.75 C 2.285156 -13.476562 2.140625 -14.359375 2.140625 -15.390625 C 2.140625 -17.378906 2.878906 -18.953125 4.359375 -20.109375 C 5.847656 -21.273438 7.890625 -21.859375 10.484375 -21.859375 C 11.773438 -21.859375 13.015625 -21.742188 14.203125 -21.515625 C 15.390625 -21.285156 16.335938 -21.035156 17.046875 -20.765625 L 15.984375 -16.078125 C 15.285156 -16.316406 14.523438 -16.53125 13.703125 -16.71875 C 12.878906 -16.90625 11.957031 -17 10.9375 -17 C 9.039062 -17 8.09375 -16.472656 8.09375 -15.421875 C 8.09375 -15.179688 8.132812 -14.96875 8.21875 -14.78125 C 8.300781 -14.59375 8.460938 -14.410156 8.703125 -14.234375 C 8.941406 -14.054688 9.269531 -13.863281 9.6875 -13.65625 C 10.113281 -13.457031 10.648438 -13.238281 11.296875 -13 C 12.617188 -12.507812 13.710938 -12.023438 14.578125 -11.546875 C 15.441406 -11.078125 16.125 -10.566406 16.625 -10.015625 C 17.125 -9.460938 17.472656 -8.847656 17.671875 -8.171875 C 17.867188 -7.503906 17.96875 -6.722656 17.96875 -5.828125 C 17.96875 -3.722656 17.175781 -2.128906 15.59375 -1.046875 C 14.019531 0.0234375 11.789062 0.5625 8.90625 0.5625 C 7.019531 0.5625 5.445312 0.398438 4.1875 0.078125 C 2.9375 -0.242188 2.066406 -0.515625 1.578125 -0.734375 L 2.59375 -5.625 C 3.613281 -5.21875 4.664062 -4.898438 5.75 -4.671875 C 6.832031 -4.441406 7.898438 -4.328125 8.953125 -4.328125 Z M 8.953125 -4.328125 "/></g></g></g><g fill="#4f4d5e" fill-opacity="1"><g transform="translate(267.263682, 79.64705)"><g><path d="M 8.953125 -4.328125 C 10.054688 -4.328125 10.835938 -4.4375 11.296875 -4.65625 C 11.753906 -4.875 11.984375 -5.289062 11.984375 -5.90625 C 11.984375 -6.394531 11.6875 -6.820312 11.09375 -7.1875 C 10.5 -7.550781 9.59375 -7.960938 8.375 -8.421875 C 7.4375 -8.773438 6.582031 -9.140625 5.8125 -9.515625 C 5.039062 -9.890625 4.382812 -10.335938 3.84375 -10.859375 C 3.300781 -11.390625 2.878906 -12.019531 2.578125 -12.75 C 2.285156 -13.476562 2.140625 -14.359375 2.140625 -15.390625 C 2.140625 -17.378906 2.878906 -18.953125 4.359375 -20.109375 C 5.847656 -21.273438 7.890625 -21.859375 10.484375 -21.859375 C 11.773438 -21.859375 13.015625 -21.742188 14.203125 -21.515625 C 15.390625 -21.285156 16.335938 -21.035156 17.046875 -20.765625 L 15.984375 -16.078125 C 15.285156 -16.316406 14.523438 -16.53125 13.703125 -16.71875 C 12.878906 -16.90625 11.957031 -17 10.9375 -17 C 9.039062 -17 8.09375 -16.472656 8.09375 -15.421875 C 8.09375 -15.179688 8.132812 -14.96875 8.21875 -14.78125 C 8.300781 -14.59375 8.460938 -14.410156 8.703125 -14.234375 C 8.941406 -14.054688 9.269531 -13.863281 9.6875 -13.65625 C 10.113281 -13.457031 10.648438 -13.238281 11.296875 -13 C 12.617188 -12.507812 13.710938 -12.023438 14.578125 -11.546875 C 15.441406 -11.078125 16.125 -10.566406 16.625 -10.015625 C 17.125 -9.460938 17.472656 -8.847656 17.671875 -8.171875 C 17.867188 -7.503906 17.96875 -6.722656 17.96875 -5.828125 C 17.96875 -3.722656 17.175781 -2.128906 15.59375 -1.046875 C 14.019531 0.0234375 11.789062 0.5625 8.90625 0.5625 C 7.019531 0.5625 5.445312 0.398438 4.1875 0.078125 C 2.9375 -0.242188 2.066406 -0.515625 1.578125 -0.734375 L 2.59375 -5.625 C 3.613281 -5.21875 4.664062 -4.898438 5.75 -4.671875 C 6.832031 -4.441406 7.898438 -4.328125 8.953125 -4.328125 Z M 8.953125 -4.328125 "/></g></g></g><g fill="#4f4d5e" fill-opacity="1"><g transform="translate(286.900198, 79.64705)"><g><path d="M 10.96875 -4.203125 C 11.5625 -4.203125 12.128906 -4.21875 12.671875 -4.25 C 13.210938 -4.28125 13.644531 -4.320312 13.96875 -4.375 L 13.96875 -8.953125 C 13.726562 -9.003906 13.363281 -9.054688 12.875 -9.109375 C 12.382812 -9.160156 11.9375 -9.1875 11.53125 -9.1875 C 10.96875 -9.1875 10.4375 -9.148438 9.9375 -9.078125 C 9.4375 -9.015625 9 -8.890625 8.625 -8.703125 C 8.25 -8.515625 7.953125 -8.257812 7.734375 -7.9375 C 7.515625 -7.613281 7.40625 -7.207031 7.40625 -6.71875 C 7.40625 -5.769531 7.722656 -5.113281 8.359375 -4.75 C 8.992188 -4.382812 9.863281 -4.203125 10.96875 -4.203125 Z M 10.484375 -21.859375 C 12.265625 -21.859375 13.75 -21.65625 14.9375 -21.25 C 16.125 -20.84375 17.070312 -20.257812 17.78125 -19.5 C 18.5 -18.75 19.003906 -17.832031 19.296875 -16.75 C 19.597656 -15.675781 19.75 -14.476562 19.75 -13.15625 L 19.75 -0.609375 C 18.882812 -0.421875 17.679688 -0.195312 16.140625 0.0625 C 14.609375 0.320312 12.75 0.453125 10.5625 0.453125 C 9.1875 0.453125 7.9375 0.328125 6.8125 0.078125 C 5.695312 -0.160156 4.734375 -0.554688 3.921875 -1.109375 C 3.117188 -1.660156 2.5 -2.378906 2.0625 -3.265625 C 1.632812 -4.160156 1.421875 -5.257812 1.421875 -6.5625 C 1.421875 -7.800781 1.671875 -8.851562 2.171875 -9.71875 C 2.671875 -10.582031 3.335938 -11.269531 4.171875 -11.78125 C 5.003906 -12.289062 5.957031 -12.660156 7.03125 -12.890625 C 8.113281 -13.117188 9.238281 -13.234375 10.40625 -13.234375 C 11.1875 -13.234375 11.878906 -13.195312 12.484375 -13.125 C 13.097656 -13.0625 13.59375 -12.976562 13.96875 -12.875 L 13.96875 -13.4375 C 13.96875 -14.46875 13.65625 -15.289062 13.03125 -15.90625 C 12.414062 -16.53125 11.335938 -16.84375 9.796875 -16.84375 C 8.773438 -16.84375 7.765625 -16.765625 6.765625 -16.609375 C 5.765625 -16.460938 4.898438 -16.253906 4.171875 -15.984375 L 3.40625 -20.84375 C 3.75 -20.957031 4.179688 -21.070312 4.703125 -21.1875 C 5.234375 -21.3125 5.8125 -21.421875 6.4375 -21.515625 C 7.0625 -21.609375 7.71875 -21.6875 8.40625 -21.75 C 9.09375 -21.820312 9.785156 -21.859375 10.484375 -21.859375 Z M 10.484375 -21.859375 "/></g></g></g><g fill="#4f4d5e" fill-opacity="1"><g transform="translate(309.289874, 79.64705)"><g><path d="M 7.96875 -11.328125 C 7.96875 -7.960938 9.332031 -6.28125 12.0625 -6.28125 C 12.6875 -6.28125 13.265625 -6.359375 13.796875 -6.515625 C 14.335938 -6.679688 14.800781 -6.867188 15.1875 -7.078125 L 15.1875 -16.71875 C 14.882812 -16.769531 14.53125 -16.816406 14.125 -16.859375 C 13.71875 -16.898438 13.25 -16.921875 12.71875 -16.921875 C 11.125 -16.921875 9.929688 -16.394531 9.140625 -15.34375 C 8.359375 -14.289062 7.96875 -12.953125 7.96875 -11.328125 Z M 21.21875 -2.671875 C 21.21875 0.804688 20.332031 3.390625 18.5625 5.078125 C 16.789062 6.765625 14.054688 7.609375 10.359375 7.609375 C 9.066406 7.609375 7.769531 7.492188 6.46875 7.265625 C 5.175781 7.035156 3.976562 6.734375 2.875 6.359375 L 3.921875 1.296875 C 4.867188 1.671875 5.863281 1.96875 6.90625 2.1875 C 7.945312 2.40625 9.125 2.515625 10.4375 2.515625 C 12.164062 2.515625 13.390625 2.132812 14.109375 1.375 C 14.828125 0.625 15.1875 -0.34375 15.1875 -1.53125 L 15.1875 -2.3125 C 14.53125 -2.007812 13.859375 -1.785156 13.171875 -1.640625 C 12.484375 -1.492188 11.738281 -1.421875 10.9375 -1.421875 C 7.988281 -1.421875 5.734375 -2.289062 4.171875 -4.03125 C 2.609375 -5.769531 1.828125 -8.203125 1.828125 -11.328125 C 1.828125 -12.898438 2.066406 -14.328125 2.546875 -15.609375 C 3.035156 -16.890625 3.742188 -17.988281 4.671875 -18.90625 C 5.609375 -19.820312 6.75 -20.53125 8.09375 -21.03125 C 9.445312 -21.53125 10.972656 -21.78125 12.671875 -21.78125 C 13.398438 -21.78125 14.148438 -21.742188 14.921875 -21.671875 C 15.691406 -21.609375 16.453125 -21.519531 17.203125 -21.40625 C 17.960938 -21.300781 18.6875 -21.175781 19.375 -21.03125 C 20.0625 -20.882812 20.675781 -20.726562 21.21875 -20.5625 Z M 21.21875 -2.671875 "/></g></g></g><g fill="#4f4d5e" fill-opacity="1"><g transform="translate(333.339543, 79.64705)"><g><path d="M 1.828125 -10.484375 C 1.828125 -12.367188 2.113281 -14.019531 2.6875 -15.4375 C 3.269531 -16.851562 4.03125 -18.035156 4.96875 -18.984375 C 5.914062 -19.929688 7.003906 -20.644531 8.234375 -21.125 C 9.460938 -21.613281 10.726562 -21.859375 12.03125 -21.859375 C 15.050781 -21.859375 17.4375 -20.929688 19.1875 -19.078125 C 20.945312 -17.234375 21.828125 -14.519531 21.828125 -10.9375 C 21.828125 -10.582031 21.8125 -10.195312 21.78125 -9.78125 C 21.75 -9.363281 21.722656 -8.988281 21.703125 -8.65625 L 8.015625 -8.65625 C 8.148438 -7.414062 8.726562 -6.429688 9.75 -5.703125 C 10.78125 -4.972656 12.160156 -4.609375 13.890625 -4.609375 C 14.992188 -4.609375 16.078125 -4.707031 17.140625 -4.90625 C 18.210938 -5.113281 19.082031 -5.367188 19.75 -5.671875 L 20.5625 -0.765625 C 20.238281 -0.609375 19.804688 -0.445312 19.265625 -0.28125 C 18.722656 -0.125 18.125 0.015625 17.46875 0.140625 C 16.8125 0.265625 16.101562 0.363281 15.34375 0.4375 C 14.582031 0.519531 13.828125 0.5625 13.078125 0.5625 C 11.160156 0.5625 9.492188 0.28125 8.078125 -0.28125 C 6.660156 -0.851562 5.484375 -1.628906 4.546875 -2.609375 C 3.617188 -3.597656 2.929688 -4.765625 2.484375 -6.109375 C 2.046875 -7.460938 1.828125 -8.921875 1.828125 -10.484375 Z M 15.984375 -12.796875 C 15.960938 -13.304688 15.875 -13.800781 15.71875 -14.28125 C 15.570312 -14.769531 15.34375 -15.203125 15.03125 -15.578125 C 14.726562 -15.960938 14.335938 -16.273438 13.859375 -16.515625 C 13.390625 -16.753906 12.804688 -16.875 12.109375 -16.875 C 11.429688 -16.875 10.847656 -16.757812 10.359375 -16.53125 C 9.878906 -16.300781 9.472656 -16 9.140625 -15.625 C 8.816406 -15.25 8.566406 -14.8125 8.390625 -14.3125 C 8.222656 -13.8125 8.097656 -13.304688 8.015625 -12.796875 Z M 15.984375 -12.796875 "/></g></g></g><g fill="#0ba68b" fill-opacity="1"><g transform="translate(107.335091, 103.955388)"><g><path d="M 5.171875 0.15625 C 4.535156 0.15625 3.90625 0.132812 3.28125 0.09375 C 2.65625 0.0507812 2.003906 -0.0390625 1.328125 -0.1875 L 1.328125 -11.34375 C 1.859375 -11.445312 2.4375 -11.519531 3.0625 -11.5625 C 3.695312 -11.613281 4.285156 -11.640625 4.828125 -11.640625 C 5.554688 -11.640625 6.226562 -11.585938 6.84375 -11.484375 C 7.457031 -11.378906 7.988281 -11.195312 8.4375 -10.9375 C 8.882812 -10.6875 9.226562 -10.351562 9.46875 -9.9375 C 9.71875 -9.519531 9.84375 -9.007812 9.84375 -8.40625 C 9.84375 -7.488281 9.398438 -6.765625 8.515625 -6.234375 C 9.242188 -5.953125 9.742188 -5.570312 10.015625 -5.09375 C 10.285156 -4.625 10.421875 -4.085938 10.421875 -3.484375 C 10.421875 -2.273438 9.976562 -1.363281 9.09375 -0.75 C 8.207031 -0.144531 6.898438 0.15625 5.171875 0.15625 Z M 3.859375 -5.015625 L 3.859375 -2.046875 C 4.046875 -2.023438 4.25 -2.003906 4.46875 -1.984375 C 4.6875 -1.972656 4.929688 -1.96875 5.203125 -1.96875 C 5.972656 -1.96875 6.597656 -2.078125 7.078125 -2.296875 C 7.554688 -2.523438 7.796875 -2.9375 7.796875 -3.53125 C 7.796875 -4.0625 7.59375 -4.441406 7.1875 -4.671875 C 6.789062 -4.898438 6.222656 -5.015625 5.484375 -5.015625 Z M 3.859375 -7 L 5.109375 -7 C 5.910156 -7 6.484375 -7.097656 6.828125 -7.296875 C 7.171875 -7.503906 7.34375 -7.832031 7.34375 -8.28125 C 7.34375 -8.75 7.164062 -9.078125 6.8125 -9.265625 C 6.457031 -9.453125 5.9375 -9.546875 5.25 -9.546875 C 5.03125 -9.546875 4.789062 -9.539062 4.53125 -9.53125 C 4.28125 -9.53125 4.054688 -9.519531 3.859375 -9.5 Z M 3.859375 -7 "/></g></g></g><g fill="#0ba68b" fill-opacity="1"><g transform="translate(131.773218, 103.955388)"><g><path d="M 5.828125 0.234375 C 5.023438 0.234375 4.328125 0.117188 3.734375 -0.109375 C 3.148438 -0.335938 2.664062 -0.648438 2.28125 -1.046875 C 1.894531 -1.453125 1.609375 -1.9375 1.421875 -2.5 C 1.242188 -3.0625 1.15625 -3.679688 1.15625 -4.359375 L 1.15625 -11.515625 L 3.75 -11.515625 L 3.75 -4.5625 C 3.75 -4.101562 3.800781 -3.707031 3.90625 -3.375 C 4.007812 -3.050781 4.15625 -2.785156 4.34375 -2.578125 C 4.53125 -2.378906 4.75 -2.234375 5 -2.140625 C 5.257812 -2.054688 5.546875 -2.015625 5.859375 -2.015625 C 6.492188 -2.015625 7.003906 -2.207031 7.390625 -2.59375 C 7.785156 -2.976562 7.984375 -3.632812 7.984375 -4.5625 L 7.984375 -11.515625 L 10.578125 -11.515625 L 10.578125 -4.359375 C 10.578125 -3.679688 10.484375 -3.054688 10.296875 -2.484375 C 10.109375 -1.921875 9.820312 -1.4375 9.4375 -1.03125 C 9.050781 -0.632812 8.554688 -0.320312 7.953125 -0.09375 C 7.359375 0.125 6.648438 0.234375 5.828125 0.234375 Z M 5.828125 0.234375 "/></g></g></g><g fill="#0ba68b" fill-opacity="1"><g transform="translate(156.792116, 103.955388)"><g><path d="M 5.171875 0.15625 C 4.535156 0.15625 3.90625 0.132812 3.28125 0.09375 C 2.65625 0.0507812 2.003906 -0.0390625 1.328125 -0.1875 L 1.328125 -11.34375 C 1.859375 -11.445312 2.4375 -11.519531 3.0625 -11.5625 C 3.695312 -11.613281 4.285156 -11.640625 4.828125 -11.640625 C 5.554688 -11.640625 6.226562 -11.585938 6.84375 -11.484375 C 7.457031 -11.378906 7.988281 -11.195312 8.4375 -10.9375 C 8.882812 -10.6875 9.226562 -10.351562 9.46875 -9.9375 C 9.71875 -9.519531 9.84375 -9.007812 9.84375 -8.40625 C 9.84375 -7.488281 9.398438 -6.765625 8.515625 -6.234375 C 9.242188 -5.953125 9.742188 -5.570312 10.015625 -5.09375 C 10.285156 -4.625 10.421875 -4.085938 10.421875 -3.484375 C 10.421875 -2.273438 9.976562 -1.363281 9.09375 -0.75 C 8.207031 -0.144531 6.898438 0.15625 5.171875 0.15625 Z M 3.859375 -5.015625 L 3.859375 -2.046875 C 4.046875 -2.023438 4.25 -2.003906 4.46875 -1.984375 C 4.6875 -1.972656 4.929688 -1.96875 5.203125 -1.96875 C 5.972656 -1.96875 6.597656 -2.078125 7.078125 -2.296875 C 7.554688 -2.523438 7.796875 -2.9375 7.796875 -3.53125 C 7.796875 -4.0625 7.59375 -4.441406 7.1875 -4.671875 C 6.789062 -4.898438 6.222656 -5.015625 5.484375 -5.015625 Z M 3.859375 -7 L 5.109375 -7 C 5.910156 -7 6.484375 -7.097656 6.828125 -7.296875 C 7.171875 -7.503906 7.34375 -7.832031 7.34375 -8.28125 C 7.34375 -8.75 7.164062 -9.078125 6.8125 -9.265625 C 6.457031 -9.453125 5.9375 -9.546875 5.25 -9.546875 C 5.03125 -9.546875 4.789062 -9.539062 4.53125 -9.53125 C 4.28125 -9.53125 4.054688 -9.519531 3.859375 -9.5 Z M 3.859375 -7 "/></g></g></g><g fill="#0ba68b" fill-opacity="1"><g transform="translate(181.230241, 103.955388)"><g><path d="M 5.171875 0.15625 C 4.535156 0.15625 3.90625 0.132812 3.28125 0.09375 C 2.65625 0.0507812 2.003906 -0.0390625 1.328125 -0.1875 L 1.328125 -11.34375 C 1.859375 -11.445312 2.4375 -11.519531 3.0625 -11.5625 C 3.695312 -11.613281 4.285156 -11.640625 4.828125 -11.640625 C 5.554688 -11.640625 6.226562 -11.585938 6.84375 -11.484375 C 7.457031 -11.378906 7.988281 -11.195312 8.4375 -10.9375 C 8.882812 -10.6875 9.226562 -10.351562 9.46875 -9.9375 C 9.71875 -9.519531 9.84375 -9.007812 9.84375 -8.40625 C 9.84375 -7.488281 9.398438 -6.765625 8.515625 -6.234375 C 9.242188 -5.953125 9.742188 -5.570312 10.015625 -5.09375 C 10.285156 -4.625 10.421875 -4.085938 10.421875 -3.484375 C 10.421875 -2.273438 9.976562 -1.363281 9.09375 -0.75 C 8.207031 -0.144531 6.898438 0.15625 5.171875 0.15625 Z M 3.859375 -5.015625 L 3.859375 -2.046875 C 4.046875 -2.023438 4.25 -2.003906 4.46875 -1.984375 C 4.6875 -1.972656 4.929688 -1.96875 5.203125 -1.96875 C 5.972656 -1.96875 6.597656 -2.078125 7.078125 -2.296875 C 7.554688 -2.523438 7.796875 -2.9375 7.796875 -3.53125 C 7.796875 -4.0625 7.59375 -4.441406 7.1875 -4.671875 C 6.789062 -4.898438 6.222656 -5.015625 5.484375 -5.015625 Z M 3.859375 -7 L 5.109375 -7 C 5.910156 -7 6.484375 -7.097656 6.828125 -7.296875 C 7.171875 -7.503906 7.34375 -7.832031 7.34375 -8.28125 C 7.34375 -8.75 7.164062 -9.078125 6.8125 -9.265625 C 6.457031 -9.453125 5.9375 -9.546875 5.25 -9.546875 C 5.03125 -9.546875 4.789062 -9.539062 4.53125 -9.53125 C 4.28125 -9.53125 4.054688 -9.519531 3.859375 -9.5 Z M 3.859375 -7 "/></g></g></g><g fill="#0ba68b" fill-opacity="1"><g transform="translate(205.668369, 103.955388)"><g><path d="M 9.015625 -2.21875 L 9.015625 0 L 1.328125 0 L 1.328125 -11.515625 L 3.921875 -11.515625 L 3.921875 -2.21875 Z M 9.015625 -2.21875 "/></g></g></g><g fill="#0ba68b" fill-opacity="1"><g transform="translate(228.297758, 103.955388)"><g><path d="M 1.328125 0 L 1.328125 -11.515625 L 9.109375 -11.515625 L 9.109375 -9.328125 L 3.921875 -9.328125 L 3.921875 -7.078125 L 8.515625 -7.078125 L 8.515625 -4.953125 L 3.921875 -4.953125 L 3.921875 -2.171875 L 9.484375 -2.171875 L 9.484375 0 Z M 1.328125 0 "/></g></g></g></svg>